<svg xmlns="http://www.w3.org/2000/svg" width="22" height="22" viewBox="0 0 150 150" role="img" aria-label="Arteo network spark logo">
  <rect width="150" height="150" fill="none"></rect>
  <g fill="none" stroke="#000" stroke-width="13" stroke-linecap="round" stroke-linejoin="round">
    <path d="M75 75L36 47"></path>
    <path d="M75 75L114 47"></path>
    <path d="M75 75L39 105"></path>
    <path d="M75 75L111 105"></path>
  </g>
  <g fill="#000">
    <circle cx="36" cy="47" r="13"></circle>
    <circle cx="114" cy="47" r="13"></circle>
    <circle cx="39" cy="105" r="13"></circle>
    <circle cx="111" cy="105" r="13"></circle>
    <path d="M75 37L88 56L111 63L94 80L96 104L75 94L54 104L56 80L39 63L62 56Z"></path>
  </g>
  <path fill="#fff" d="M75 59L81 69L92 72L84 80L85 92L75 87L65 92L66 80L58 72L69 69Z"></path>
</svg>
